<svg width="272" height="272" xmlns="http://www.w3.org/2000/svg">

 <title/>
 <g>
  <title>background</title>
  <rect fill="none" id="canvas_background" height="402" width="582" y="-1" x="-1"/>
 </g>
 <g>
  <title>Layer 1</title>
  <path fill="#52796f" id="svg_1" d="m113.76,217.1a380,380 0 0 0 22.24,34.9a380,380 0 0 0 22.24,-34.9a86.13,86.13 0 0 1 -44.49,0l0.01,0z" class="cls-1"/>
  <path fill="#52796f" id="svg_2" d="m136,185.06a73.27,73.27 0 0 1 -40.91,-12c-0.65,-0.44 -1.28,-0.89 -1.91,-1.35a226.59,226.59 0 0 0 15,35.17a77.62,77.62 0 0 0 55.58,0a226.59,226.59 0 0 0 15,-35.17c-0.63,0.46 -1.26,0.91 -1.91,1.35a73.27,73.27 0 0 1 -40.85,12z" class="cls-1"/>
  <path fill="#52796f" id="svg_3" d="m243,128.77c-21.09,-21.07 -62.13,-33.41 -81.24,-38.25a41.25,41.25 0 0 0 -8.11,-3.71a32,32 0 0 0 -1.32,-54.11l2.09,-7.7a4,4 0 0 0 -7.72,-2l-1.75,6.51a32,32 0 0 0 -17.92,0l-1.74,-6.51a4,4 0 0 0 -7.73,2l2.06,7.67a32,32 0 0 0 -1.31,54.1a41.24,41.24 0 0 0 -8.11,3.71c-19.11,4.88 -60.15,17.21 -81.2,38.29c-28.07,28 -24.2,46.91 -10.16,60.93s32.92,17.89 61,-10.16a93.29,93.29 0 0 0 13.47,-17.67l4.65,3.39c0.55,0.4 1.1,0.8 1.67,1.18c10.15,6.85 23.08,10.62 36.43,10.62s26.28,-3.77 36.43,-10.62c0.56,-0.38 1.12,-0.78 1.67,-1.18l4.65,-3.39a93.29,93.29 0 0 0 13.47,17.67c28.07,28 47,24.18 61,10.16s17.83,-32.89 -10.28,-60.93zm-87.19,-23.19a78.45,78.45 0 0 1 -39.7,0c0.8,-2.86 1.48,-5.47 2.05,-7.75a69.84,69.84 0 0 0 35.6,0c0.61,2.27 1.29,4.88 2.09,7.74l-0.04,0.01zm-19.85,34.53a84.94,84.94 0 0 1 -29.6,-5.29c1,-2.51 1.94,-5 2.82,-7.46a77.75,77.75 0 0 0 53.56,0c0.89,2.45 1.83,4.95 2.82,7.46a84.88,84.88 0 0 1 -29.56,5.28l-0.04,0.01z" class="cls-1"/>
 </g>
</svg>