<svg width="32" height="32" xmlns="http://www.w3.org/2000/svg">

 <title/>
 <g>
  <title>background</title>
  <rect fill="none" id="canvas_background" height="402" width="582" y="-1" x="-1"/>
 </g>
 <g>
  <title>Layer 1</title>
  <path fill="#52796f" id="svg_1" d="m23,31l-14,0a3,3 0 0 1 -3,-3l0,-24a3,3 0 0 1 3,-3l14,0a3,3 0 0 1 3,3l0,24a3,3 0 0 1 -3,3zm-14,-28a1,1 0 0 0 -1,1l0,24a1,1 0 0 0 1,1l14,0a1,1 0 0 0 1,-1l0,-24a1,1 0 0 0 -1,-1l-14,0z" class="cls-1"/>
  <path fill="#52796f" id="svg_2" d="m25,7l-18,0a1,1 0 0 1 0,-2l18,0a1,1 0 0 1 0,2z" class="cls-1"/>
  <path fill="#52796f" id="svg_3" d="m25,25l-18,0a1,1 0 0 1 0,-2l18,0a1,1 0 0 1 0,2z" class="cls-1"/>
  <rect fill="#52796f" id="svg_4" y="26" x="15" width="2" height="2" class="cls-1"/>
 </g>
</svg>