<svg width="24" height="24" xmlns="http://www.w3.org/2000/svg">
 <title/>

 <g>
  <title>background</title>
  <rect fill="none" id="canvas_background" height="402" width="582" y="-1" x="-1"/>
 </g>
 <g>
  <title>Layer 1</title>
  <path id="svg_1" fill="#52796f" d="m23.752,17.58l-2.21,-1.27l2.08,-1.2c0.236,-0.139 0.317,-0.442 0.18,-0.68l-0.5,-0.86c-0.139,-0.236 -0.442,-0.317 -0.68,-0.18l-3.07,1.78l-2.37,-1.36l3,-1.34c0.254,-0.108 0.372,-0.402 0.264,-0.656c-0.051,-0.119 -0.145,-0.213 -0.264,-0.264l-3.07,-1.36l2.43,-1.39l3.09,1.8c0.238,0.137 0.541,0.056 0.68,-0.18l0.5,-0.86c0.137,-0.238 0.056,-0.541 -0.18,-0.68l-2.1,-1.22l2.21,-1.27c0.236,-0.139 0.317,-0.442 0.18,-0.68l-0.5,-0.87c-0.139,-0.236 -0.442,-0.317 -0.68,-0.18l-2.21,1.26l0,-2.42c0,-0.276 -0.223,-0.5 -0.499,-0.501c-0.01,0 -0.021,0 -0.031,0.001l-1,0c-0.276,0 -0.5,0.224 -0.5,0.5l0,3.57l-2.4,1.38l0.36,-3.4c0.029,-0.275 -0.171,-0.521 -0.445,-0.549c-0.127,-0.014 -0.253,0.022 -0.355,0.099l-2.7,2l0,-2l3.14,-1.8c0.24,-0.136 0.325,-0.44 0.19,-0.68l-0.5,-0.87c-0.136,-0.24 -0.44,-0.325 -0.68,-0.19l-2.11,1.22l0,-1.78c0,-0.276 -0.224,-0.5 -0.5,-0.5l-1,0c-0.276,0 -0.5,0.224 -0.5,0.5l0,1.77l-2.09,-1.2c-0.24,-0.135 -0.544,-0.05 -0.68,0.19l-0.5,0.87c-0.135,0.24 -0.05,0.544 0.19,0.68l3.08,1.77l0,2l-2.7,-2c-0.22,-0.167 -0.533,-0.125 -0.701,0.095c-0.076,0.102 -0.112,0.228 -0.099,0.355l0.36,3.4l-2.2,-1.25l0,-3.67c0,-0.276 -0.224,-0.5 -0.5,-0.5l-1,0c-0.276,0 -0.5,0.224 -0.5,0.5l0,2.49l-2.41,-1.35c-0.238,-0.137 -0.541,-0.056 -0.68,0.18l-0.5,0.87c-0.137,0.238 -0.056,0.541 0.18,0.68l2.32,1.34l-2,1.16c-0.236,0.139 -0.317,0.442 -0.18,0.68l0.5,0.86c0.139,0.236 0.442,0.317 0.68,0.18l3,-1.73l2.3,1.32l-3.07,1.35c-0.254,0.108 -0.372,0.402 -0.264,0.656c0.051,0.119 0.145,0.213 0.264,0.264l3,1.34l-2.25,1.31l-3,-1.73c-0.238,-0.137 -0.541,-0.056 -0.68,0.18l-0.5,0.86c-0.137,0.238 -0.056,0.541 0.18,0.68l2,1.15l-2.3,1.33c-0.236,0.139 -0.317,0.442 -0.18,0.68l0.5,0.87c0.139,0.236 0.442,0.317 0.68,0.18l2.42,-1.39l0,2.56c0,0.276 0.224,0.5 0.5,0.5l1,0c0.276,0 0.5,-0.224 0.5,-0.5l0,-3.7l2.2,-1.27l-0.37,3.44c-0.029,0.275 0.171,0.521 0.445,0.549c0.127,0.013 0.253,-0.022 0.355,-0.099l2.7,-2l0,2.06l-3.09,1.74c-0.24,0.136 -0.325,0.44 -0.19,0.68l0.5,0.87c0.136,0.24 0.44,0.325 0.68,0.19l2.1,-1.2l0,1.76c0,0.276 0.224,0.5 0.5,0.5l1,0c0.276,0 0.5,-0.224 0.5,-0.5l0,-1.78l2.11,1.22c0.24,0.135 0.544,0.05 0.68,-0.19l0.5,-0.87c0.135,-0.24 0.05,-0.544 -0.19,-0.68l-3.1,-1.79l0,-2l2.7,2c0.087,0.065 0.192,0.1 0.3,0.1l0,0c0.276,0 0.5,-0.224 0.5,-0.5c0.012,-0.063 0.012,-0.127 0,-0.19l-0.36,-3.34l2.4,1.38l0,3.58c0,0.276 0.224,0.5 0.5,0.5l1,0c0.276,0 0.5,-0.224 0.5,-0.5l0,-2.44l2.22,1.28c0.238,0.137 0.541,0.056 0.68,-0.18l0.5,-0.87c0.116,-0.233 0.033,-0.516 -0.19,-0.65z"/>
 </g>
</svg>